<svg width="97" height="97" viewBox="0 0 97 97" fill="none" xmlns="http://www.w3.org/2000/svg">
<mask id="path-1-outside-1_224_2740" maskUnits="userSpaceOnUse" x="-3.02675" y="-2.98718" width="102.318" height="102.318" fill="black">
<rect fill="white" x="-3.02675" y="-2.98718" width="102.318" height="102.318"/>
<path d="M96.2719 45.8004C95.6798 35.3233 91.6599 25.3314 84.8311 17.3633C78.0024 9.39533 68.7436 3.89319 58.4806 1.70424C48.2176 -0.484702 37.5196 0.760957 28.0341 5.24939C18.5486 9.73782 10.8016 17.2201 5.98634 26.5439C1.17104 35.8677 -0.445582 46.516 1.38544 56.8489C3.21647 67.1817 8.39359 76.6261 16.1195 83.7276C23.8454 90.8291 33.6917 95.1937 44.1419 96.1495C54.5922 97.1052 65.0668 94.599 73.9527 89.0168L48.4998 48.5L96.2719 45.8004Z"/>
</mask>
<path d="M96.2719 45.8004C95.6798 35.3233 91.6599 25.3314 84.8311 17.3633C78.0024 9.39533 68.7436 3.89319 58.4806 1.70424C48.2176 -0.484702 37.5196 0.760957 28.0341 5.24939C18.5486 9.73782 10.8016 17.2201 5.98634 26.5439C1.17104 35.8677 -0.445582 46.516 1.38544 56.8489C3.21647 67.1817 8.39359 76.6261 16.1195 83.7276C23.8454 90.8291 33.6917 95.1937 44.1419 96.1495C54.5922 97.1052 65.0668 94.599 73.9527 89.0168L48.4998 48.5L96.2719 45.8004Z" fill="white"/>
<path d="M96.2719 45.8004C95.6798 35.3233 91.6599 25.3314 84.8311 17.3633C78.0024 9.39533 68.7436 3.89319 58.4806 1.70424C48.2176 -0.484702 37.5196 0.760957 28.0341 5.24939C18.5486 9.73782 10.8016 17.2201 5.98634 26.5439C1.17104 35.8677 -0.445582 46.516 1.38544 56.8489C3.21647 67.1817 8.39359 76.6261 16.1195 83.7276C23.8454 90.8291 33.6917 95.1937 44.1419 96.1495C54.5922 97.1052 65.0668 94.599 73.9527 89.0168L48.4998 48.5L96.2719 45.8004Z" stroke="white" stroke-width="0.6" mask="url(#path-1-outside-1_224_2740)"/>
</svg>
